<svg id="visual" viewBox="0 0 960 540" width="960" height="540" xmlns="http://www.w3.org/2000/svg" xmlns:xlink="http://www.w3.org/1999/xlink" version="1.1"><rect x="0" y="0" width="960" height="540" fill="#001220"></rect><defs><linearGradient id="grad1_0" x1="43.8%" y1="0%" x2="100%" y2="100%"><stop offset="14.444444444444446%" stop-color="#6600ff" stop-opacity="1"></stop><stop offset="85.55555555555554%" stop-color="#6600ff" stop-opacity="1"></stop></linearGradient></defs><defs><linearGradient id="grad1_1" x1="43.8%" y1="0%" x2="100%" y2="100%"><stop offset="14.444444444444446%" stop-color="#6600ff" stop-opacity="1"></stop><stop offset="85.55555555555554%" stop-color="#0035c1" stop-opacity="1"></stop></linearGradient></defs><defs><linearGradient id="grad1_2" x1="43.8%" y1="0%" x2="100%" y2="100%"><stop offset="14.444444444444446%" stop-color="#002a70" stop-opacity="1"></stop><stop offset="85.55555555555554%" stop-color="#0035c1" stop-opacity="1"></stop></linearGradient></defs><defs><linearGradient id="grad1_3" x1="43.8%" y1="0%" x2="100%" y2="100%"><stop offset="14.444444444444446%" stop-color="#002a70" stop-opacity="1"></stop><stop offset="85.55555555555554%" stop-color="#001220" stop-opacity="1"></stop></linearGradient></defs><defs><linearGradient id="grad2_0" x1="0%" y1="0%" x2="56.3%" y2="100%"><stop offset="14.444444444444446%" stop-color="#6600ff" stop-opacity="1"></stop><stop offset="85.55555555555554%" stop-color="#6600ff" stop-opacity="1"></stop></linearGradient></defs><defs><linearGradient id="grad2_1" x1="0%" y1="0%" x2="56.3%" y2="100%"><stop offset="14.444444444444446%" stop-color="#0035c1" stop-opacity="1"></stop><stop offset="85.55555555555554%" stop-color="#6600ff" stop-opacity="1"></stop></linearGradient></defs><defs><linearGradient id="grad2_2" x1="0%" y1="0%" x2="56.3%" y2="100%"><stop offset="14.444444444444446%" stop-color="#0035c1" stop-opacity="1"></stop><stop offset="85.55555555555554%" stop-color="#002a70" stop-opacity="1"></stop></linearGradient></defs><defs><linearGradient id="grad2_3" x1="0%" y1="0%" x2="56.3%" y2="100%"><stop offset="14.444444444444446%" stop-color="#001220" stop-opacity="1"></stop><stop offset="85.55555555555554%" stop-color="#002a70" stop-opacity="1"></stop></linearGradient></defs><g transform="translate(960, 0)"><path d="M0 324C-62.5 318.9 -125.1 313.8 -162 280.6C-198.9 247.4 -210.2 186 -233 134.5C-255.7 83 -289.8 41.5 -324 0L0 0Z" fill="#001f47"></path><path d="M0 243C-46.9 239.2 -93.8 235.4 -121.5 210.4C-149.2 185.5 -157.7 139.5 -174.7 100.9C-191.8 62.3 -217.4 31.1 -243 0L0 0Z" fill="#003299"></path><path d="M0 162C-31.3 159.5 -62.5 156.9 -81 140.3C-99.5 123.7 -105.1 93 -116.5 67.3C-127.8 41.5 -144.9 20.8 -162 0L0 0Z" fill="#002fe3"></path><path d="M0 81C-15.6 79.7 -31.3 78.5 -40.5 70.1C-49.7 61.8 -52.6 46.5 -58.2 33.6C-63.9 20.8 -72.5 10.4 -81 0L0 0Z" fill="#6600ff"></path></g><g transform="translate(0, 540)"><path d="M0 -324C34.1 -276.9 68.1 -229.8 120.5 -208.7C172.9 -187.6 243.6 -192.5 280.6 -162C317.6 -131.5 320.8 -65.8 324 0L0 0Z" fill="#001f47"></path><path d="M0 -243C25.5 -207.7 51.1 -172.4 90.4 -156.5C129.7 -140.7 182.7 -144.3 210.4 -121.5C238.2 -98.7 240.6 -49.3 243 0L0 0Z" fill="#003299"></path><path d="M0 -162C17 -138.5 34.1 -114.9 60.2 -104.4C86.4 -93.8 121.8 -96.2 140.3 -81C158.8 -65.8 160.4 -32.9 162 0L0 0Z" fill="#002fe3"></path><path d="M0 -81C8.5 -69.2 17 -57.5 30.1 -52.2C43.2 -46.9 60.9 -48.1 70.1 -40.5C79.4 -32.9 80.2 -16.4 81 0L0 0Z" fill="#6600ff"></path></g></svg>