<svg id="visual" viewBox="0 0 540 960" width="540" height="960" xmlns="http://www.w3.org/2000/svg" xmlns:xlink="http://www.w3.org/1999/xlink" version="1.1"><rect x="0" y="0" width="540" height="960" fill="#001220"></rect><path d="M0 458L9 441.5C18 425 36 392 54 389.8C72 387.7 90 416.3 108 421.2C126 426 144 407 162 392.2C180 377.3 198 366.7 216 378.5C234 390.3 252 424.7 270 433.8C288 443 306 427 324 429.3C342 431.7 360 452.3 378 447.7C396 443 414 413 432 411.8C450 410.7 468 438.3 486 441.3C504 444.3 522 422.7 531 411.8L540 401L540 961L531 961C522 961 504 961 486 961C468 961 450 961 432 961C414 961 396 961 378 961C360 961 342 961 324 961C306 961 288 961 270 961C252 961 234 961 216 961C198 961 180 961 162 961C144 961 126 961 108 961C90 961 72 961 54 961C36 961 18 961 9 961L0 961Z" fill="#009ff4"></path><path d="M0 399L9 398.5C18 398 36 397 54 400.2C72 403.3 90 410.7 108 416.8C126 423 144 428 162 439.2C180 450.3 198 467.7 216 466C234 464.3 252 443.7 270 429.7C288 415.7 306 408.3 324 417.8C342 427.3 360 453.7 378 453.5C396 453.3 414 426.7 432 413.3C450 400 468 400 486 403C504 406 522 412 531 415L540 418L540 961L531 961C522 961 504 961 486 961C468 961 450 961 432 961C414 961 396 961 378 961C360 961 342 961 324 961C306 961 288 961 270 961C252 961 234 961 216 961C198 961 180 961 162 961C144 961 126 961 108 961C90 961 72 961 54 961C36 961 18 961 9 961L0 961Z" fill="#0098f8"></path><path d="M0 549L9 546.8C18 544.7 36 540.3 54 540.5C72 540.7 90 545.3 108 547.5C126 549.7 144 549.3 162 544C180 538.7 198 528.3 216 527C234 525.7 252 533.3 270 536.3C288 539.3 306 537.7 324 526.8C342 516 360 496 378 488C396 480 414 484 432 490C450 496 468 504 486 504.7C504 505.3 522 498.7 531 495.3L540 492L540 961L531 961C522 961 504 961 486 961C468 961 450 961 432 961C414 961 396 961 378 961C360 961 342 961 324 961C306 961 288 961 270 961C252 961 234 961 216 961C198 961 180 961 162 961C144 961 126 961 108 961C90 961 72 961 54 961C36 961 18 961 9 961L0 961Z" fill="#0091fb"></path><path d="M0 594L9 577.5C18 561 36 528 54 524C72 520 90 545 108 551C126 557 144 544 162 536.8C180 529.7 198 528.3 216 536.3C234 544.3 252 561.7 270 561.3C288 561 306 543 324 533.3C342 523.7 360 522.3 378 534C396 545.7 414 570.3 432 571.3C450 572.3 468 549.7 486 546.2C504 542.7 522 558.3 531 566.2L540 574L540 961L531 961C522 961 504 961 486 961C468 961 450 961 432 961C414 961 396 961 378 961C360 961 342 961 324 961C306 961 288 961 270 961C252 961 234 961 216 961C198 961 180 961 162 961C144 961 126 961 108 961C90 961 72 961 54 961C36 961 18 961 9 961L0 961Z" fill="#0089fd"></path><path d="M0 638L9 625.2C18 612.3 36 586.7 54 578.8C72 571 90 581 108 591.8C126 602.7 144 614.3 162 614C180 613.7 198 601.3 216 596.5C234 591.7 252 594.3 270 590C288 585.7 306 574.3 324 576.8C342 579.3 360 595.7 378 599.5C396 603.3 414 594.7 432 583.8C450 573 468 560 486 563C504 566 522 585 531 594.5L540 604L540 961L531 961C522 961 504 961 486 961C468 961 450 961 432 961C414 961 396 961 378 961C360 961 342 961 324 961C306 961 288 961 270 961C252 961 234 961 216 961C198 961 180 961 162 961C144 961 126 961 108 961C90 961 72 961 54 961C36 961 18 961 9 961L0 961Z" fill="#0081ff"></path><path d="M0 653L9 654.2C18 655.3 36 657.7 54 651.2C72 644.7 90 629.3 108 617.8C126 606.3 144 598.7 162 602.8C180 607 198 623 216 627.7C234 632.3 252 625.7 270 626.5C288 627.3 306 635.7 324 638.2C342 640.7 360 637.3 378 642.8C396 648.3 414 662.7 432 660.3C450 658 468 639 486 637.8C504 636.7 522 653.3 531 661.7L540 670L540 961L531 961C522 961 504 961 486 961C468 961 450 961 432 961C414 961 396 961 378 961C360 961 342 961 324 961C306 961 288 961 270 961C252 961 234 961 216 961C198 961 180 961 162 961C144 961 126 961 108 961C90 961 72 961 54 961C36 961 18 961 9 961L0 961Z" fill="#0078ff"></path><path d="M0 707L9 704.5C18 702 36 697 54 690.5C72 684 90 676 108 677C126 678 144 688 162 691.8C180 695.7 198 693.3 216 688.2C234 683 252 675 270 679.3C288 683.7 306 700.3 324 708.3C342 716.3 360 715.7 378 709C396 702.3 414 689.7 432 680.2C450 670.7 468 664.3 486 659.2C504 654 522 650 531 648L540 646L540 961L531 961C522 961 504 961 486 961C468 961 450 961 432 961C414 961 396 961 378 961C360 961 342 961 324 961C306 961 288 961 270 961C252 961 234 961 216 961C198 961 180 961 162 961C144 961 126 961 108 961C90 961 72 961 54 961C36 961 18 961 9 961L0 961Z" fill="#026eff"></path><path d="M0 722L9 721C18 720 36 718 54 719.5C72 721 90 726 108 725.7C126 725.3 144 719.7 162 719.2C180 718.7 198 723.3 216 720.8C234 718.3 252 708.7 270 705C288 701.3 306 703.7 324 709.8C342 716 360 726 378 734.3C396 742.7 414 749.3 432 741.7C450 734 468 712 486 706.3C504 700.7 522 711.3 531 716.7L540 722L540 961L531 961C522 961 504 961 486 961C468 961 450 961 432 961C414 961 396 961 378 961C360 961 342 961 324 961C306 961 288 961 270 961C252 961 234 961 216 961C198 961 180 961 162 961C144 961 126 961 108 961C90 961 72 961 54 961C36 961 18 961 9 961L0 961Z" fill="#1963ff"></path><path d="M0 742L9 748C18 754 36 766 54 772.5C72 779 90 780 108 778.3C126 776.7 144 772.3 162 774.3C180 776.3 198 784.7 216 782.3C234 780 252 767 270 766.5C288 766 306 778 324 778.2C342 778.3 360 766.7 378 767.8C396 769 414 783 432 781.7C450 780.3 468 763.7 486 755.2C504 746.7 522 746.3 531 746.2L540 746L540 961L531 961C522 961 504 961 486 961C468 961 450 961 432 961C414 961 396 961 378 961C360 961 342 961 324 961C306 961 288 961 270 961C252 961 234 961 216 961C198 961 180 961 162 961C144 961 126 961 108 961C90 961 72 961 54 961C36 961 18 961 9 961L0 961Z" fill="#2f56ff"></path><path d="M0 791L9 792.5C18 794 36 797 54 803C72 809 90 818 108 820.5C126 823 144 819 162 813.7C180 808.3 198 801.7 216 799.5C234 797.3 252 799.7 270 801.8C288 804 306 806 324 811C342 816 360 824 378 825C396 826 414 820 432 819.7C450 819.3 468 824.7 486 824C504 823.3 522 816.7 531 813.3L540 810L540 961L531 961C522 961 504 961 486 961C468 961 450 961 432 961C414 961 396 961 378 961C360 961 342 961 324 961C306 961 288 961 270 961C252 961 234 961 216 961C198 961 180 961 162 961C144 961 126 961 108 961C90 961 72 961 54 961C36 961 18 961 9 961L0 961Z" fill="#4446ff"></path><path d="M0 845L9 845.3C18 845.7 36 846.3 54 848.8C72 851.3 90 855.7 108 853.7C126 851.7 144 843.3 162 844.2C180 845 198 855 216 856.7C234 858.3 252 851.7 270 847.5C288 843.3 306 841.7 324 840.8C342 840 360 840 378 845C396 850 414 860 432 865C450 870 468 870 486 870.3C504 870.7 522 871.3 531 871.7L540 872L540 961L531 961C522 961 504 961 486 961C468 961 450 961 432 961C414 961 396 961 378 961C360 961 342 961 324 961C306 961 288 961 270 961C252 961 234 961 216 961C198 961 180 961 162 961C144 961 126 961 108 961C90 961 72 961 54 961C36 961 18 961 9 961L0 961Z" fill="#5931ff"></path><path d="M0 906L9 907.5C18 909 36 912 54 913C72 914 90 913 108 913.2C126 913.3 144 914.7 162 911.7C180 908.7 198 901.3 216 897.5C234 893.7 252 893.3 270 896C288 898.7 306 904.3 324 904.8C342 905.3 360 900.7 378 900.3C396 900 414 904 432 903.5C450 903 468 898 486 896.7C504 895.3 522 897.7 531 898.8L540 900L540 961L531 961C522 961 504 961 486 961C468 961 450 961 432 961C414 961 396 961 378 961C360 961 342 961 324 961C306 961 288 961 270 961C252 961 234 961 216 961C198 961 180 961 162 961C144 961 126 961 108 961C90 961 72 961 54 961C36 961 18 961 9 961L0 961Z" fill="#6c00ff"></path></svg>