<svg id="visual" viewBox="0 0 960 540" width="960" height="540" xmlns="http://www.w3.org/2000/svg" xmlns:xlink="http://www.w3.org/1999/xlink" version="1.1"><rect x="0" y="0" width="960" height="540" fill="#001220"></rect><path d="M0 257L16 247.7C32 238.3 64 219.7 96 218.5C128 217.3 160 233.7 192 236.5C224 239.3 256 228.7 288 220.3C320 212 352 206 384 212.5C416 219 448 238 480 243.2C512 248.3 544 239.7 576 241.2C608 242.7 640 254.3 672 251.7C704 249 736 232 768 231.2C800 230.3 832 245.7 864 247.3C896 249 928 237 944 231L960 225L960 541L944 541C928 541 896 541 864 541C832 541 800 541 768 541C736 541 704 541 672 541C640 541 608 541 576 541C544 541 512 541 480 541C448 541 416 541 384 541C352 541 320 541 288 541C256 541 224 541 192 541C160 541 128 541 96 541C64 541 32 541 16 541L0 541Z" fill="#009ff4"></path><path d="M0 224L16 223.7C32 223.3 64 222.7 96 224.5C128 226.3 160 230.7 192 234.2C224 237.7 256 240.3 288 246.5C320 252.7 352 262.3 384 261.3C416 260.3 448 248.7 480 240.8C512 233 544 229 576 234.5C608 240 640 255 672 255C704 255 736 240 768 232.5C800 225 832 225 864 226.7C896 228.3 928 231.7 944 233.3L960 235L960 541L944 541C928 541 896 541 864 541C832 541 800 541 768 541C736 541 704 541 672 541C640 541 608 541 576 541C544 541 512 541 480 541C448 541 416 541 384 541C352 541 320 541 288 541C256 541 224 541 192 541C160 541 128 541 96 541C64 541 32 541 16 541L0 541Z" fill="#0098f8"></path><path d="M0 309L16 307.7C32 306.3 64 303.7 96 303.7C128 303.7 160 306.3 192 307.7C224 309 256 309 288 306C320 303 352 297 384 296.2C416 295.3 448 299.7 480 301.3C512 303 544 302 576 295.8C608 289.7 640 278.3 672 273.8C704 269.3 736 271.7 768 275C800 278.3 832 282.7 864 283C896 283.3 928 279.7 944 277.8L960 276L960 541L944 541C928 541 896 541 864 541C832 541 800 541 768 541C736 541 704 541 672 541C640 541 608 541 576 541C544 541 512 541 480 541C448 541 416 541 384 541C352 541 320 541 288 541C256 541 224 541 192 541C160 541 128 541 96 541C64 541 32 541 16 541L0 541Z" fill="#0091fb"></path><path d="M0 333L16 323.8C32 314.7 64 296.3 96 294.2C128 292 160 306 192 309.3C224 312.7 256 305.3 288 301.3C320 297.3 352 296.7 384 301.2C416 305.7 448 315.3 480 315.2C512 315 544 305 576 299.7C608 294.3 640 293.7 672 300.2C704 306.7 736 320.3 768 320.8C800 321.3 832 308.7 864 306.8C896 305 928 314 944 318.5L960 323L960 541L944 541C928 541 896 541 864 541C832 541 800 541 768 541C736 541 704 541 672 541C640 541 608 541 576 541C544 541 512 541 480 541C448 541 416 541 384 541C352 541 320 541 288 541C256 541 224 541 192 541C160 541 128 541 96 541C64 541 32 541 16 541L0 541Z" fill="#0089fd"></path><path d="M0 359L16 351.7C32 344.3 64 329.7 96 325.2C128 320.7 160 326.3 192 332.5C224 338.7 256 345.3 288 345.2C320 345 352 338 384 335.3C416 332.7 448 334.3 480 331.8C512 329.3 544 322.7 576 324C608 325.3 640 334.7 672 336.8C704 339 736 334 768 328C800 322 832 315 864 316.8C896 318.7 928 329.3 944 334.7L960 340L960 541L944 541C928 541 896 541 864 541C832 541 800 541 768 541C736 541 704 541 672 541C640 541 608 541 576 541C544 541 512 541 480 541C448 541 416 541 384 541C352 541 320 541 288 541C256 541 224 541 192 541C160 541 128 541 96 541C64 541 32 541 16 541L0 541Z" fill="#0081ff"></path><path d="M0 367L16 367.7C32 368.3 64 369.7 96 366C128 362.3 160 353.7 192 347.2C224 340.7 256 336.3 288 338.7C320 341 352 350 384 352.7C416 355.3 448 351.7 480 352.2C512 352.7 544 357.3 576 358.7C608 360 640 358 672 361C704 364 736 372 768 370.7C800 369.3 832 358.7 864 358C896 357.3 928 366.7 944 371.3L960 376L960 541L944 541C928 541 896 541 864 541C832 541 800 541 768 541C736 541 704 541 672 541C640 541 608 541 576 541C544 541 512 541 480 541C448 541 416 541 384 541C352 541 320 541 288 541C256 541 224 541 192 541C160 541 128 541 96 541C64 541 32 541 16 541L0 541Z" fill="#0078ff"></path><path d="M0 398L16 396.5C32 395 64 392 96 388.2C128 384.3 160 379.7 192 380.2C224 380.7 256 386.3 288 388.5C320 390.7 352 389.3 384 386.5C416 383.7 448 379.3 480 381.8C512 384.3 544 393.7 576 398.2C608 402.7 640 402.3 672 398.7C704 395 736 388 768 382.7C800 377.3 832 373.7 864 370.7C896 367.7 928 365.3 944 364.2L960 363L960 541L944 541C928 541 896 541 864 541C832 541 800 541 768 541C736 541 704 541 672 541C640 541 608 541 576 541C544 541 512 541 480 541C448 541 416 541 384 541C352 541 320 541 288 541C256 541 224 541 192 541C160 541 128 541 96 541C64 541 32 541 16 541L0 541Z" fill="#026eff"></path><path d="M0 405L16 404.5C32 404 64 403 96 404C128 405 160 408 192 407.8C224 407.7 256 404.3 288 404C320 403.7 352 406.3 384 405C416 403.7 448 398.3 480 396.3C512 394.3 544 395.7 576 399.2C608 402.7 640 408.3 672 413C704 417.7 736 421.3 768 417C800 412.7 832 400.3 864 397.2C896 394 928 400 944 403L960 406L960 541L944 541C928 541 896 541 864 541C832 541 800 541 768 541C736 541 704 541 672 541C640 541 608 541 576 541C544 541 512 541 480 541C448 541 416 541 384 541C352 541 320 541 288 541C256 541 224 541 192 541C160 541 128 541 96 541C64 541 32 541 16 541L0 541Z" fill="#1963ff"></path><path d="M0 417L16 420.3C32 423.7 64 430.3 96 434C128 437.7 160 438.3 192 437.3C224 436.3 256 433.7 288 434.8C320 436 352 441 384 439.8C416 438.7 448 431.3 480 431C512 430.7 544 437.3 576 437.3C608 437.3 640 430.7 672 431.3C704 432 736 440 768 439.3C800 438.7 832 429.3 864 424.5C896 419.7 928 419.3 944 419.2L960 419L960 541L944 541C928 541 896 541 864 541C832 541 800 541 768 541C736 541 704 541 672 541C640 541 608 541 576 541C544 541 512 541 480 541C448 541 416 541 384 541C352 541 320 541 288 541C256 541 224 541 192 541C160 541 128 541 96 541C64 541 32 541 16 541L0 541Z" fill="#2f56ff"></path><path d="M0 444L16 445C32 446 64 448 96 451.5C128 455 160 460 192 461.3C224 462.7 256 460.3 288 457.3C320 454.3 352 450.7 384 449.5C416 448.3 448 449.7 480 450.8C512 452 544 453 576 455.8C608 458.7 640 463.3 672 463.8C704 464.3 736 460.7 768 460.3C800 460 832 463 864 462.7C896 462.3 928 458.7 944 456.8L960 455L960 541L944 541C928 541 896 541 864 541C832 541 800 541 768 541C736 541 704 541 672 541C640 541 608 541 576 541C544 541 512 541 480 541C448 541 416 541 384 541C352 541 320 541 288 541C256 541 224 541 192 541C160 541 128 541 96 541C64 541 32 541 16 541L0 541Z" fill="#4446ff"></path><path d="M0 475L16 475.2C32 475.3 64 475.7 96 477C128 478.3 160 480.7 192 479.5C224 478.3 256 473.7 288 474.2C320 474.7 352 480.3 384 481.3C416 482.3 448 478.7 480 476.3C512 474 544 473 576 472.5C608 472 640 472 672 474.8C704 477.7 736 483.3 768 486.2C800 489 832 489 864 489.2C896 489.3 928 489.7 944 489.8L960 490L960 541L944 541C928 541 896 541 864 541C832 541 800 541 768 541C736 541 704 541 672 541C640 541 608 541 576 541C544 541 512 541 480 541C448 541 416 541 384 541C352 541 320 541 288 541C256 541 224 541 192 541C160 541 128 541 96 541C64 541 32 541 16 541L0 541Z" fill="#5931ff"></path><path d="M0 509L16 509.8C32 510.7 64 512.3 96 512.8C128 513.3 160 512.7 192 512.8C224 513 256 514 288 512.3C320 510.7 352 506.3 384 504.2C416 502 448 502 480 503.7C512 505.3 544 508.7 576 509C608 509.3 640 506.7 672 506.3C704 506 736 508 768 507.7C800 507.3 832 504.7 864 504C896 503.3 928 504.7 944 505.3L960 506L960 541L944 541C928 541 896 541 864 541C832 541 800 541 768 541C736 541 704 541 672 541C640 541 608 541 576 541C544 541 512 541 480 541C448 541 416 541 384 541C352 541 320 541 288 541C256 541 224 541 192 541C160 541 128 541 96 541C64 541 32 541 16 541L0 541Z" fill="#6c00ff"></path></svg>