<svg id="visual" viewBox="0 0 540 960" width="540" height="960" xmlns="http://www.w3.org/2000/svg" xmlns:xlink="http://www.w3.org/1999/xlink" version="1.1"><rect x="0" y="0" width="540" height="960" fill="#001220"></rect><path d="M0 356L18 369C36 382 72 408 108 424.3C144 440.7 180 447.3 216 437.3C252 427.3 288 400.7 324 386C360 371.3 396 368.7 432 389.2C468 409.7 504 453.3 522 475.2L540 497L540 961L522 961C504 961 468 961 432 961C396 961 360 961 324 961C288 961 252 961 216 961C180 961 144 961 108 961C72 961 36 961 18 961L0 961Z" fill="#192f5b"></path><path d="M0 380L18 387.2C36 394.3 72 408.7 108 423.5C144 438.3 180 453.7 216 466.2C252 478.7 288 488.3 324 493.7C360 499 396 500 432 499.5C468 499 504 497 522 496L540 495L540 961L522 961C504 961 468 961 432 961C396 961 360 961 324 961C288 961 252 961 216 961C180 961 144 961 108 961C72 961 36 961 18 961L0 961Z" fill="#203364"></path><path d="M0 466L18 465.5C36 465 72 464 108 468.7C144 473.3 180 483.7 216 494.2C252 504.7 288 515.3 324 512.2C360 509 396 492 432 477C468 462 504 449 522 442.5L540 436L540 961L522 961C504 961 468 961 432 961C396 961 360 961 324 961C288 961 252 961 216 961C180 961 144 961 108 961C72 961 36 961 18 961L0 961Z" fill="#27376c"></path><path d="M0 508L18 527C36 546 72 584 108 584.3C144 584.7 180 547.3 216 527.3C252 507.3 288 504.7 324 522.2C360 539.7 396 577.3 432 577.2C468 577 504 539 522 520L540 501L540 961L522 961C504 961 468 961 432 961C396 961 360 961 324 961C288 961 252 961 216 961C180 961 144 961 108 961C72 961 36 961 18 961L0 961Z" fill="#2f3a75"></path><path d="M0 575L18 581.2C36 587.3 72 599.7 108 595.8C144 592 180 572 216 575C252 578 288 604 324 612.2C360 620.3 396 610.7 432 599.5C468 588.3 504 575.7 522 569.3L540 563L540 961L522 961C504 961 468 961 432 961C396 961 360 961 324 961C288 961 252 961 216 961C180 961 144 961 108 961C72 961 36 961 18 961L0 961Z" fill="#383e7d"></path><path d="M0 697L18 687.8C36 678.7 72 660.3 108 647.7C144 635 180 628 216 629.7C252 631.3 288 641.7 324 642.7C360 643.7 396 635.3 432 636.3C468 637.3 504 647.7 522 652.8L540 658L540 961L522 961C504 961 468 961 432 961C396 961 360 961 324 961C288 961 252 961 216 961C180 961 144 961 108 961C72 961 36 961 18 961L0 961Z" fill="#414185"></path><path d="M0 748L18 743.5C36 739 72 730 108 729.8C144 729.7 180 738.3 216 734.8C252 731.3 288 715.7 324 714.2C360 712.7 396 725.3 432 721.7C468 718 504 698 522 688L540 678L540 961L522 961C504 961 468 961 432 961C396 961 360 961 324 961C288 961 252 961 216 961C180 961 144 961 108 961C72 961 36 961 18 961L0 961Z" fill="#4b448d"></path><path d="M0 757L18 750.7C36 744.3 72 731.7 108 733C144 734.3 180 749.7 216 755.3C252 761 288 757 324 755C360 753 396 753 432 746.7C468 740.3 504 727.7 522 721.3L540 715L540 961L522 961C504 961 468 961 432 961C396 961 360 961 324 961C288 961 252 961 216 961C180 961 144 961 108 961C72 961 36 961 18 961L0 961Z" fill="#554895"></path><path d="M0 783L18 789.7C36 796.3 72 809.7 108 812.3C144 815 180 807 216 800.2C252 793.3 288 787.7 324 784C360 780.3 396 778.7 432 785.5C468 792.3 504 807.7 522 815.3L540 823L540 961L522 961C504 961 468 961 432 961C396 961 360 961 324 961C288 961 252 961 216 961C180 961 144 961 108 961C72 961 36 961 18 961L0 961Z" fill="#604b9d"></path><path d="M0 877L18 877.2C36 877.3 72 877.7 108 872.3C144 867 180 856 216 855.3C252 854.7 288 864.3 324 868.3C360 872.3 396 870.7 432 867.8C468 865 504 861 522 859L540 857L540 961L522 961C504 961 468 961 432 961C396 961 360 961 324 961C288 961 252 961 216 961C180 961 144 961 108 961C72 961 36 961 18 961L0 961Z" fill="#6b4da4"></path><path d="M0 886L18 886C36 886 72 886 108 889.5C144 893 180 900 216 900.8C252 901.7 288 896.3 324 893C360 889.7 396 888.3 432 891.3C468 894.3 504 901.7 522 905.3L540 909L540 961L522 961C504 961 468 961 432 961C396 961 360 961 324 961C288 961 252 961 216 961C180 961 144 961 108 961C72 961 36 961 18 961L0 961Z" fill="#7650ab"></path></svg>