<svg id="visual" viewBox="0 0 540 960" width="540" height="960" xmlns="http://www.w3.org/2000/svg" xmlns:xlink="http://www.w3.org/1999/xlink" version="1.1"><rect x="0" y="0" width="540" height="960" fill="#001220"></rect><path d="M0 440L15 441C30 442 60 444 90 422.3C120 400.7 150 355.3 180 332.5C210 309.7 240 309.3 270 342C300 374.7 330 440.3 360 473C390 505.7 420 505.3 450 482C480 458.7 510 412.3 525 389.2L540 366L540 961L525 961C510 961 480 961 450 961C420 961 390 961 360 961C330 961 300 961 270 961C240 961 210 961 180 961C150 961 120 961 90 961C60 961 30 961 15 961L0 961Z" fill="#00ca9e"></path><path d="M0 471L15 476.3C30 481.7 60 492.3 90 500.5C120 508.7 150 514.3 180 531.2C210 548 240 576 270 585.8C300 595.7 330 587.3 360 573C390 558.7 420 538.3 450 528C480 517.7 510 517.3 525 517.2L540 517L540 961L525 961C510 961 480 961 450 961C420 961 390 961 360 961C330 961 300 961 270 961C240 961 210 961 180 961C150 961 120 961 90 961C60 961 30 961 15 961L0 961Z" fill="#00c2ae"></path><path d="M0 435L15 448.2C30 461.3 60 487.7 90 495.5C120 503.3 150 492.7 180 510.3C210 528 240 574 270 568.7C300 563.3 330 506.7 360 511C390 515.3 420 580.7 450 590.2C480 599.7 510 553.3 525 530.2L540 507L540 961L525 961C510 961 480 961 450 961C420 961 390 961 360 961C330 961 300 961 270 961C240 961 210 961 180 961C150 961 120 961 90 961C60 961 30 961 15 961L0 961Z" fill="#00b8ba"></path><path d="M0 523L15 542.5C30 562 60 601 90 595.8C120 590.7 150 541.3 180 543.3C210 545.3 240 598.7 270 598.5C300 598.3 330 544.7 360 544.7C390 544.7 420 598.3 450 617.2C480 636 510 620 525 612L540 604L540 961L525 961C510 961 480 961 450 961C420 961 390 961 360 961C330 961 300 961 270 961C240 961 210 961 180 961C150 961 120 961 90 961C60 961 30 961 15 961L0 961Z" fill="#00aec0"></path><path d="M0 727L15 709C30 691 60 655 90 652.8C120 650.7 150 682.3 180 676.5C210 670.7 240 627.3 270 607C300 586.7 330 589.3 360 608.3C390 627.3 420 662.7 450 664.2C480 665.7 510 633.3 525 617.2L540 601L540 961L525 961C510 961 480 961 450 961C420 961 390 961 360 961C330 961 300 961 270 961C240 961 210 961 180 961C150 961 120 961 90 961C60 961 30 961 15 961L0 961Z" fill="#00a3c1"></path><path d="M0 697L15 711C30 725 60 753 90 741.7C120 730.3 150 679.7 180 670.2C210 660.7 240 692.3 270 694.7C300 697 330 670 360 663.8C390 657.7 420 672.3 450 671.5C480 670.7 510 654.3 525 646.2L540 638L540 961L525 961C510 961 480 961 450 961C420 961 390 961 360 961C330 961 300 961 270 961C240 961 210 961 180 961C150 961 120 961 90 961C60 961 30 961 15 961L0 961Z" fill="#0098bf"></path><path d="M0 718L15 716.2C30 714.3 60 710.7 90 710C120 709.3 150 711.7 180 711.5C210 711.3 240 708.7 270 717.3C300 726 330 746 360 761.5C390 777 420 788 450 794.2C480 800.3 510 801.7 525 802.3L540 803L540 961L525 961C510 961 480 961 450 961C420 961 390 961 360 961C330 961 300 961 270 961C240 961 210 961 180 961C150 961 120 961 90 961C60 961 30 961 15 961L0 961Z" fill="#008cbd"></path><path d="M0 815L15 822.7C30 830.3 60 845.7 90 844.8C120 844 150 827 180 815.3C210 803.7 240 797.3 270 804.7C300 812 330 833 360 847.7C390 862.3 420 870.7 450 860.2C480 849.7 510 820.3 525 805.7L540 791L540 961L525 961C510 961 480 961 450 961C420 961 390 961 360 961C330 961 300 961 270 961C240 961 210 961 180 961C150 961 120 961 90 961C60 961 30 961 15 961L0 961Z" fill="#0080b9"></path><path d="M0 927L15 925.3C30 923.7 60 920.3 90 909.8C120 899.3 150 881.7 180 879.2C210 876.7 240 889.3 270 888.8C300 888.3 330 874.7 360 866.2C390 857.7 420 854.3 450 862C480 869.7 510 888.3 525 897.7L540 907L540 961L525 961C510 961 480 961 450 961C420 961 390 961 360 961C330 961 300 961 270 961C240 961 210 961 180 961C150 961 120 961 90 961C60 961 30 961 15 961L0 961Z" fill="#0074b3"></path></svg>