<svg id="visual" viewBox="0 0 960 540" width="960" height="540" xmlns="http://www.w3.org/2000/svg" xmlns:xlink="http://www.w3.org/1999/xlink" version="1.1"><rect x="0" y="0" width="960" height="540" fill="#001220"></rect><path d="M0 275L26.7 275.2C53.3 275.3 106.7 275.7 160 263.5C213.3 251.3 266.7 226.7 320 209.5C373.3 192.3 426.7 182.7 480 178.2C533.3 173.7 586.7 174.3 640 193.8C693.3 213.3 746.7 251.7 800 254C853.3 256.3 906.7 222.7 933.3 205.8L960 189L960 541L933.3 541C906.7 541 853.3 541 800 541C746.7 541 693.3 541 640 541C586.7 541 533.3 541 480 541C426.7 541 373.3 541 320 541C266.7 541 213.3 541 160 541C106.7 541 53.3 541 26.7 541L0 541Z" fill="#192f5b"></path><path d="M0 203L26.7 207.7C53.3 212.3 106.7 221.7 160 236.3C213.3 251 266.7 271 320 276.8C373.3 282.7 426.7 274.3 480 262.3C533.3 250.3 586.7 234.7 640 234.2C693.3 233.7 746.7 248.3 800 248.3C853.3 248.3 906.7 233.7 933.3 226.3L960 219L960 541L933.3 541C906.7 541 853.3 541 800 541C746.7 541 693.3 541 640 541C586.7 541 533.3 541 480 541C426.7 541 373.3 541 320 541C266.7 541 213.3 541 160 541C106.7 541 53.3 541 26.7 541L0 541Z" fill="#203364"></path><path d="M0 288L26.7 280.2C53.3 272.3 106.7 256.7 160 258.8C213.3 261 266.7 281 320 289.8C373.3 298.7 426.7 296.3 480 285.2C533.3 274 586.7 254 640 245.2C693.3 236.3 746.7 238.7 800 244.7C853.3 250.7 906.7 260.3 933.3 265.2L960 270L960 541L933.3 541C906.7 541 853.3 541 800 541C746.7 541 693.3 541 640 541C586.7 541 533.3 541 480 541C426.7 541 373.3 541 320 541C266.7 541 213.3 541 160 541C106.7 541 53.3 541 26.7 541L0 541Z" fill="#27376c"></path><path d="M0 348L26.7 347.3C53.3 346.7 106.7 345.3 160 336.5C213.3 327.7 266.7 311.3 320 305.2C373.3 299 426.7 303 480 312C533.3 321 586.7 335 640 332.2C693.3 329.3 746.7 309.7 800 305C853.3 300.3 906.7 310.7 933.3 315.8L960 321L960 541L933.3 541C906.7 541 853.3 541 800 541C746.7 541 693.3 541 640 541C586.7 541 533.3 541 480 541C426.7 541 373.3 541 320 541C266.7 541 213.3 541 160 541C106.7 541 53.3 541 26.7 541L0 541Z" fill="#2f3a75"></path><path d="M0 329L26.7 325C53.3 321 106.7 313 160 319.7C213.3 326.3 266.7 347.7 320 349.8C373.3 352 426.7 335 480 329.5C533.3 324 586.7 330 640 340.3C693.3 350.7 746.7 365.3 800 363C853.3 360.7 906.7 341.3 933.3 331.7L960 322L960 541L933.3 541C906.7 541 853.3 541 800 541C746.7 541 693.3 541 640 541C586.7 541 533.3 541 480 541C426.7 541 373.3 541 320 541C266.7 541 213.3 541 160 541C106.7 541 53.3 541 26.7 541L0 541Z" fill="#383e7d"></path><path d="M0 359L26.7 359.3C53.3 359.7 106.7 360.3 160 362.2C213.3 364 266.7 367 320 370.5C373.3 374 426.7 378 480 375.2C533.3 372.3 586.7 362.7 640 358.5C693.3 354.3 746.7 355.7 800 352.5C853.3 349.3 906.7 341.7 933.3 337.8L960 334L960 541L933.3 541C906.7 541 853.3 541 800 541C746.7 541 693.3 541 640 541C586.7 541 533.3 541 480 541C426.7 541 373.3 541 320 541C266.7 541 213.3 541 160 541C106.7 541 53.3 541 26.7 541L0 541Z" fill="#414185"></path><path d="M0 397L26.7 391.2C53.3 385.3 106.7 373.7 160 371.3C213.3 369 266.7 376 320 384.2C373.3 392.3 426.7 401.7 480 409.7C533.3 417.7 586.7 424.3 640 423.2C693.3 422 746.7 413 800 403.7C853.3 394.3 906.7 384.7 933.3 379.8L960 375L960 541L933.3 541C906.7 541 853.3 541 800 541C746.7 541 693.3 541 640 541C586.7 541 533.3 541 480 541C426.7 541 373.3 541 320 541C266.7 541 213.3 541 160 541C106.7 541 53.3 541 26.7 541L0 541Z" fill="#4b448d"></path><path d="M0 393L26.7 395.2C53.3 397.3 106.7 401.7 160 403.2C213.3 404.7 266.7 403.3 320 409C373.3 414.7 426.7 427.3 480 432.8C533.3 438.3 586.7 436.7 640 434.3C693.3 432 746.7 429 800 426.7C853.3 424.3 906.7 422.7 933.3 421.8L960 421L960 541L933.3 541C906.7 541 853.3 541 800 541C746.7 541 693.3 541 640 541C586.7 541 533.3 541 480 541C426.7 541 373.3 541 320 541C266.7 541 213.3 541 160 541C106.7 541 53.3 541 26.7 541L0 541Z" fill="#554895"></path><path d="M0 469L26.7 465.7C53.3 462.3 106.7 455.7 160 450.5C213.3 445.3 266.7 441.7 320 437.8C373.3 434 426.7 430 480 432.3C533.3 434.7 586.7 443.3 640 446.8C693.3 450.3 746.7 448.7 800 451.8C853.3 455 906.7 463 933.3 467L960 471L960 541L933.3 541C906.7 541 853.3 541 800 541C746.7 541 693.3 541 640 541C586.7 541 533.3 541 480 541C426.7 541 373.3 541 320 541C266.7 541 213.3 541 160 541C106.7 541 53.3 541 26.7 541L0 541Z" fill="#604b9d"></path><path d="M0 487L26.7 488.2C53.3 489.3 106.7 491.7 160 491.2C213.3 490.7 266.7 487.3 320 480.7C373.3 474 426.7 464 480 464.8C533.3 465.7 586.7 477.3 640 483.8C693.3 490.3 746.7 491.7 800 486.8C853.3 482 906.7 471 933.3 465.5L960 460L960 541L933.3 541C906.7 541 853.3 541 800 541C746.7 541 693.3 541 640 541C586.7 541 533.3 541 480 541C426.7 541 373.3 541 320 541C266.7 541 213.3 541 160 541C106.7 541 53.3 541 26.7 541L0 541Z" fill="#6b4da4"></path><path d="M0 517L26.7 511.7C53.3 506.3 106.7 495.7 160 495.2C213.3 494.7 266.7 504.3 320 510C373.3 515.7 426.7 517.3 480 517.8C533.3 518.3 586.7 517.7 640 513.7C693.3 509.7 746.7 502.3 800 502C853.3 501.7 906.7 508.3 933.3 511.7L960 515L960 541L933.3 541C906.7 541 853.3 541 800 541C746.7 541 693.3 541 640 541C586.7 541 533.3 541 480 541C426.7 541 373.3 541 320 541C266.7 541 213.3 541 160 541C106.7 541 53.3 541 26.7 541L0 541Z" fill="#7650ab"></path></svg>