<svg id="visual" viewBox="0 0 960 540" width="960" height="540" xmlns="http://www.w3.org/2000/svg" xmlns:xlink="http://www.w3.org/1999/xlink" version="1.1"><rect x="0" y="0" width="960" height="540" fill="#001220"></rect><path d="M0 247L26.7 247.5C53.3 248 106.7 249 160 236.8C213.3 224.7 266.7 199.3 320 186.5C373.3 173.7 426.7 173.3 480 191.7C533.3 210 586.7 247 640 265.5C693.3 284 746.7 284 800 271C853.3 258 906.7 232 933.3 219L960 206L960 541L933.3 541C906.7 541 853.3 541 800 541C746.7 541 693.3 541 640 541C586.7 541 533.3 541 480 541C426.7 541 373.3 541 320 541C266.7 541 213.3 541 160 541C106.7 541 53.3 541 26.7 541L0 541Z" fill="#00ca9e"></path><path d="M0 265L26.7 267.8C53.3 270.7 106.7 276.3 160 280.8C213.3 285.3 266.7 288.7 320 298.2C373.3 307.7 426.7 323.3 480 328.8C533.3 334.3 586.7 329.7 640 321.7C693.3 313.7 746.7 302.3 800 296.7C853.3 291 906.7 291 933.3 291L960 291L960 541L933.3 541C906.7 541 853.3 541 800 541C746.7 541 693.3 541 640 541C586.7 541 533.3 541 480 541C426.7 541 373.3 541 320 541C266.7 541 213.3 541 160 541C106.7 541 53.3 541 26.7 541L0 541Z" fill="#00c2ae"></path><path d="M0 244L26.7 251.5C53.3 259 106.7 274 160 278.5C213.3 283 266.7 277 320 286.8C373.3 296.7 426.7 322.3 480 319.3C533.3 316.3 586.7 284.7 640 287.2C693.3 289.7 746.7 326.3 800 331.7C853.3 337 906.7 311 933.3 298L960 285L960 541L933.3 541C906.7 541 853.3 541 800 541C746.7 541 693.3 541 640 541C586.7 541 533.3 541 480 541C426.7 541 373.3 541 320 541C266.7 541 213.3 541 160 541C106.7 541 53.3 541 26.7 541L0 541Z" fill="#00b8ba"></path><path d="M0 294L26.7 305C53.3 316 106.7 338 160 335C213.3 332 266.7 304 320 305.2C373.3 306.3 426.7 336.7 480 336.7C533.3 336.7 586.7 306.3 640 306.2C693.3 306 746.7 336 800 346.5C853.3 357 906.7 348 933.3 343.5L960 339L960 541L933.3 541C906.7 541 853.3 541 800 541C746.7 541 693.3 541 640 541C586.7 541 533.3 541 480 541C426.7 541 373.3 541 320 541C266.7 541 213.3 541 160 541C106.7 541 53.3 541 26.7 541L0 541Z" fill="#00aec0"></path><path d="M0 408L26.7 397.8C53.3 387.7 106.7 367.3 160 366.2C213.3 365 266.7 383 320 379.8C373.3 376.7 426.7 352.3 480 341C533.3 329.7 586.7 331.3 640 342C693.3 352.7 746.7 372.3 800 373.2C853.3 374 906.7 356 933.3 347L960 338L960 541L933.3 541C906.7 541 853.3 541 800 541C746.7 541 693.3 541 640 541C586.7 541 533.3 541 480 541C426.7 541 373.3 541 320 541C266.7 541 213.3 541 160 541C106.7 541 53.3 541 26.7 541L0 541Z" fill="#00a3c1"></path><path d="M0 392L26.7 399.8C53.3 407.7 106.7 423.3 160 416.8C213.3 410.3 266.7 381.7 320 376.3C373.3 371 426.7 389 480 390.3C533.3 391.7 586.7 376.3 640 372.8C693.3 369.3 746.7 377.7 800 377.3C853.3 377 906.7 368 933.3 363.5L960 359L960 541L933.3 541C906.7 541 853.3 541 800 541C746.7 541 693.3 541 640 541C586.7 541 533.3 541 480 541C426.7 541 373.3 541 320 541C266.7 541 213.3 541 160 541C106.7 541 53.3 541 26.7 541L0 541Z" fill="#0098bf"></path><path d="M0 404L26.7 402.8C53.3 401.7 106.7 399.3 160 398.8C213.3 398.3 266.7 399.7 320 399.7C373.3 399.7 426.7 398.3 480 403.3C533.3 408.3 586.7 419.7 640 428.3C693.3 437 746.7 443 800 446.3C853.3 449.7 906.7 450.3 933.3 450.7L960 451L960 541L933.3 541C906.7 541 853.3 541 800 541C746.7 541 693.3 541 640 541C586.7 541 533.3 541 480 541C426.7 541 373.3 541 320 541C266.7 541 213.3 541 160 541C106.7 541 53.3 541 26.7 541L0 541Z" fill="#008cbd"></path><path d="M0 458L26.7 462.3C53.3 466.7 106.7 475.3 160 474.8C213.3 474.3 266.7 464.7 320 458.2C373.3 451.7 426.7 448.3 480 452.5C533.3 456.7 586.7 468.3 640 476.5C693.3 484.7 746.7 489.3 800 483.3C853.3 477.3 906.7 460.7 933.3 452.3L960 444L960 541L933.3 541C906.7 541 853.3 541 800 541C746.7 541 693.3 541 640 541C586.7 541 533.3 541 480 541C426.7 541 373.3 541 320 541C266.7 541 213.3 541 160 541C106.7 541 53.3 541 26.7 541L0 541Z" fill="#0080b9"></path><path d="M0 521L26.7 520.2C53.3 519.3 106.7 517.7 160 511.7C213.3 505.7 266.7 495.3 320 493.8C373.3 492.3 426.7 499.7 480 499.5C533.3 499.3 586.7 491.7 640 486.8C693.3 482 746.7 480 800 484.3C853.3 488.7 906.7 499.3 933.3 504.7L960 510L960 541L933.3 541C906.7 541 853.3 541 800 541C746.7 541 693.3 541 640 541C586.7 541 533.3 541 480 541C426.7 541 373.3 541 320 541C266.7 541 213.3 541 160 541C106.7 541 53.3 541 26.7 541L0 541Z" fill="#0074b3"></path></svg>